<mxfile host="Electron" agent="Mozilla/5.0 (Windows NT 10.0; Win64; x64) AppleWebKit/537.36 (KHTML, like Gecko) draw.io/26.0.16 Chrome/132.0.6834.196 Electron/34.2.0 Safari/537.36" version="26.0.16">
  <diagram name="Pagina-1" id="l9CZcpN79RiOTzKYC0Dx">
    <mxGraphModel dx="2421" dy="2124" grid="1" gridSize="10" guides="1" tooltips="1" connect="1" arrows="1" fold="1" page="1" pageScale="1" pageWidth="827" pageHeight="1169" math="0" shadow="0">
      <root>
        <mxCell id="0" />
        <mxCell id="1" parent="0" />
        <mxCell id="idPZOw37KrWaq4Scq1qP-1" value="departiments" style="shape=table;startSize=30;container=1;collapsible=0;childLayout=tableLayout;fontSize=16;labelBackgroundColor=none;" vertex="1" parent="1">
          <mxGeometry x="540" y="350" width="180" height="150" as="geometry" />
        </mxCell>
        <mxCell id="idPZOw37KrWaq4Scq1qP-2" value="" style="shape=tableRow;horizontal=0;startSize=0;swimlaneHead=0;swimlaneBody=0;top=0;left=0;bottom=0;right=0;collapsible=0;dropTarget=0;fillColor=none;points=[[0,0.5],[1,0.5]];portConstraint=eastwest;fontSize=16;labelBackgroundColor=none;" vertex="1" parent="idPZOw37KrWaq4Scq1qP-1">
          <mxGeometry y="30" width="180" height="40" as="geometry" />
        </mxCell>
        <mxCell id="idPZOw37KrWaq4Scq1qP-3" value="id" style="shape=partialRectangle;html=1;whiteSpace=wrap;connectable=0;overflow=hidden;fillColor=none;top=0;left=0;bottom=0;right=0;pointerEvents=1;fontSize=16;labelBackgroundColor=none;" vertex="1" parent="idPZOw37KrWaq4Scq1qP-2">
          <mxGeometry width="60" height="40" as="geometry">
            <mxRectangle width="60" height="40" as="alternateBounds" />
          </mxGeometry>
        </mxCell>
        <mxCell id="idPZOw37KrWaq4Scq1qP-4" value="PK" style="shape=partialRectangle;html=1;whiteSpace=wrap;connectable=0;overflow=hidden;fillColor=none;top=0;left=0;bottom=0;right=0;pointerEvents=1;fontSize=16;labelBackgroundColor=none;" vertex="1" parent="idPZOw37KrWaq4Scq1qP-2">
          <mxGeometry x="60" width="70" height="40" as="geometry">
            <mxRectangle width="70" height="40" as="alternateBounds" />
          </mxGeometry>
        </mxCell>
        <mxCell id="idPZOw37KrWaq4Scq1qP-5" value="" style="shape=partialRectangle;html=1;whiteSpace=wrap;connectable=0;overflow=hidden;fillColor=none;top=0;left=0;bottom=0;right=0;pointerEvents=1;fontSize=16;labelBackgroundColor=none;" vertex="1" parent="idPZOw37KrWaq4Scq1qP-2">
          <mxGeometry x="130" width="50" height="40" as="geometry">
            <mxRectangle width="50" height="40" as="alternateBounds" />
          </mxGeometry>
        </mxCell>
        <mxCell id="idPZOw37KrWaq4Scq1qP-6" value="" style="shape=tableRow;horizontal=0;startSize=0;swimlaneHead=0;swimlaneBody=0;top=0;left=0;bottom=0;right=0;collapsible=0;dropTarget=0;fillColor=none;points=[[0,0.5],[1,0.5]];portConstraint=eastwest;fontSize=16;labelBackgroundColor=none;" vertex="1" parent="idPZOw37KrWaq4Scq1qP-1">
          <mxGeometry y="70" width="180" height="40" as="geometry" />
        </mxCell>
        <mxCell id="idPZOw37KrWaq4Scq1qP-7" value="name" style="shape=partialRectangle;html=1;whiteSpace=wrap;connectable=0;overflow=hidden;fillColor=none;top=0;left=0;bottom=0;right=0;pointerEvents=1;fontSize=16;labelBackgroundColor=none;" vertex="1" parent="idPZOw37KrWaq4Scq1qP-6">
          <mxGeometry width="60" height="40" as="geometry">
            <mxRectangle width="60" height="40" as="alternateBounds" />
          </mxGeometry>
        </mxCell>
        <mxCell id="idPZOw37KrWaq4Scq1qP-8" value="" style="shape=partialRectangle;html=1;whiteSpace=wrap;connectable=0;overflow=hidden;fillColor=none;top=0;left=0;bottom=0;right=0;pointerEvents=1;fontSize=16;labelBackgroundColor=none;" vertex="1" parent="idPZOw37KrWaq4Scq1qP-6">
          <mxGeometry x="60" width="70" height="40" as="geometry">
            <mxRectangle width="70" height="40" as="alternateBounds" />
          </mxGeometry>
        </mxCell>
        <mxCell id="idPZOw37KrWaq4Scq1qP-9" value="" style="shape=partialRectangle;html=1;whiteSpace=wrap;connectable=0;overflow=hidden;fillColor=none;top=0;left=0;bottom=0;right=0;pointerEvents=1;fontSize=16;labelBackgroundColor=none;" vertex="1" parent="idPZOw37KrWaq4Scq1qP-6">
          <mxGeometry x="130" width="50" height="40" as="geometry">
            <mxRectangle width="50" height="40" as="alternateBounds" />
          </mxGeometry>
        </mxCell>
        <mxCell id="idPZOw37KrWaq4Scq1qP-10" value="" style="shape=tableRow;horizontal=0;startSize=0;swimlaneHead=0;swimlaneBody=0;top=0;left=0;bottom=0;right=0;collapsible=0;dropTarget=0;fillColor=none;points=[[0,0.5],[1,0.5]];portConstraint=eastwest;fontSize=16;labelBackgroundColor=none;" vertex="1" parent="idPZOw37KrWaq4Scq1qP-1">
          <mxGeometry y="110" width="180" height="40" as="geometry" />
        </mxCell>
        <mxCell id="idPZOw37KrWaq4Scq1qP-11" value="address" style="shape=partialRectangle;html=1;whiteSpace=wrap;connectable=0;overflow=hidden;fillColor=none;top=0;left=0;bottom=0;right=0;pointerEvents=1;fontSize=16;labelBackgroundColor=none;" vertex="1" parent="idPZOw37KrWaq4Scq1qP-10">
          <mxGeometry width="60" height="40" as="geometry">
            <mxRectangle width="60" height="40" as="alternateBounds" />
          </mxGeometry>
        </mxCell>
        <mxCell id="idPZOw37KrWaq4Scq1qP-12" value="" style="shape=partialRectangle;html=1;whiteSpace=wrap;connectable=0;overflow=hidden;fillColor=none;top=0;left=0;bottom=0;right=0;pointerEvents=1;fontSize=16;labelBackgroundColor=none;" vertex="1" parent="idPZOw37KrWaq4Scq1qP-10">
          <mxGeometry x="60" width="70" height="40" as="geometry">
            <mxRectangle width="70" height="40" as="alternateBounds" />
          </mxGeometry>
        </mxCell>
        <mxCell id="idPZOw37KrWaq4Scq1qP-13" value="" style="shape=partialRectangle;html=1;whiteSpace=wrap;connectable=0;overflow=hidden;fillColor=none;top=0;left=0;bottom=0;right=0;pointerEvents=1;fontSize=16;labelBackgroundColor=none;" vertex="1" parent="idPZOw37KrWaq4Scq1qP-10">
          <mxGeometry x="130" width="50" height="40" as="geometry">
            <mxRectangle width="50" height="40" as="alternateBounds" />
          </mxGeometry>
        </mxCell>
        <mxCell id="idPZOw37KrWaq4Scq1qP-49" style="edgeStyle=orthogonalEdgeStyle;rounded=0;orthogonalLoop=1;jettySize=auto;html=1;exitX=1;exitY=0.5;exitDx=0;exitDy=0;entryX=0;entryY=0.5;entryDx=0;entryDy=0;fontFamily=Helvetica;fontSize=16;fontColor=default;labelBackgroundColor=none;" edge="1" parent="1" source="idPZOw37KrWaq4Scq1qP-40" target="idPZOw37KrWaq4Scq1qP-2">
          <mxGeometry relative="1" as="geometry" />
        </mxCell>
        <mxCell id="idPZOw37KrWaq4Scq1qP-52" value="1" style="edgeLabel;html=1;align=center;verticalAlign=middle;resizable=0;points=[];fontSize=22;" vertex="1" connectable="0" parent="idPZOw37KrWaq4Scq1qP-49">
          <mxGeometry relative="1" as="geometry">
            <mxPoint as="offset" />
          </mxGeometry>
        </mxCell>
        <mxCell id="idPZOw37KrWaq4Scq1qP-50" style="edgeStyle=orthogonalEdgeStyle;rounded=0;orthogonalLoop=1;jettySize=auto;html=1;fontFamily=Helvetica;fontSize=16;fontColor=default;labelBackgroundColor=none;" edge="1" parent="1" source="idPZOw37KrWaq4Scq1qP-40" target="idPZOw37KrWaq4Scq1qP-32">
          <mxGeometry relative="1" as="geometry" />
        </mxCell>
        <mxCell id="idPZOw37KrWaq4Scq1qP-51" value="N" style="edgeLabel;html=1;align=center;verticalAlign=middle;resizable=0;points=[];rotation=0;fontSize=20;" vertex="1" connectable="0" parent="idPZOw37KrWaq4Scq1qP-50">
          <mxGeometry relative="1" as="geometry">
            <mxPoint as="offset" />
          </mxGeometry>
        </mxCell>
        <mxCell id="idPZOw37KrWaq4Scq1qP-40" value="" style="rhombus;whiteSpace=wrap;html=1;labelBackgroundColor=none;" vertex="1" parent="1">
          <mxGeometry x="379" y="400" width="70" height="70" as="geometry" />
        </mxCell>
        <mxCell id="idPZOw37KrWaq4Scq1qP-27" value="degrees" style="shape=table;startSize=30;container=1;collapsible=0;childLayout=tableLayout;fontSize=16;labelBackgroundColor=none;" vertex="1" parent="1">
          <mxGeometry x="80" y="370" width="180" height="230" as="geometry" />
        </mxCell>
        <mxCell id="idPZOw37KrWaq4Scq1qP-45" style="shape=tableRow;horizontal=0;startSize=0;swimlaneHead=0;swimlaneBody=0;top=0;left=0;bottom=0;right=0;collapsible=0;dropTarget=0;fillColor=none;points=[[0,0.5],[1,0.5]];portConstraint=eastwest;fontSize=16;labelBackgroundColor=none;" vertex="1" parent="idPZOw37KrWaq4Scq1qP-27">
          <mxGeometry y="30" width="180" height="40" as="geometry" />
        </mxCell>
        <mxCell id="idPZOw37KrWaq4Scq1qP-46" value="id" style="shape=partialRectangle;html=1;whiteSpace=wrap;connectable=0;overflow=hidden;fillColor=none;top=0;left=0;bottom=0;right=0;pointerEvents=1;fontSize=16;labelBackgroundColor=none;" vertex="1" parent="idPZOw37KrWaq4Scq1qP-45">
          <mxGeometry width="110" height="40" as="geometry">
            <mxRectangle width="110" height="40" as="alternateBounds" />
          </mxGeometry>
        </mxCell>
        <mxCell id="idPZOw37KrWaq4Scq1qP-47" value="PK" style="shape=partialRectangle;html=1;whiteSpace=wrap;connectable=0;overflow=hidden;fillColor=none;top=0;left=0;bottom=0;right=0;pointerEvents=1;fontSize=16;labelBackgroundColor=none;" vertex="1" parent="idPZOw37KrWaq4Scq1qP-45">
          <mxGeometry x="110" width="50" height="40" as="geometry">
            <mxRectangle width="50" height="40" as="alternateBounds" />
          </mxGeometry>
        </mxCell>
        <mxCell id="idPZOw37KrWaq4Scq1qP-48" style="shape=partialRectangle;html=1;whiteSpace=wrap;connectable=0;overflow=hidden;fillColor=none;top=0;left=0;bottom=0;right=0;pointerEvents=1;fontSize=16;labelBackgroundColor=none;" vertex="1" parent="idPZOw37KrWaq4Scq1qP-45">
          <mxGeometry x="160" width="20" height="40" as="geometry">
            <mxRectangle width="20" height="40" as="alternateBounds" />
          </mxGeometry>
        </mxCell>
        <mxCell id="idPZOw37KrWaq4Scq1qP-41" style="shape=tableRow;horizontal=0;startSize=0;swimlaneHead=0;swimlaneBody=0;top=0;left=0;bottom=0;right=0;collapsible=0;dropTarget=0;fillColor=none;points=[[0,0.5],[1,0.5]];portConstraint=eastwest;fontSize=16;labelBackgroundColor=none;" vertex="1" parent="idPZOw37KrWaq4Scq1qP-27">
          <mxGeometry y="70" width="180" height="40" as="geometry" />
        </mxCell>
        <mxCell id="idPZOw37KrWaq4Scq1qP-42" value="name" style="shape=partialRectangle;html=1;whiteSpace=wrap;connectable=0;overflow=hidden;fillColor=none;top=0;left=0;bottom=0;right=0;pointerEvents=1;fontSize=16;labelBackgroundColor=none;" vertex="1" parent="idPZOw37KrWaq4Scq1qP-41">
          <mxGeometry width="110" height="40" as="geometry">
            <mxRectangle width="110" height="40" as="alternateBounds" />
          </mxGeometry>
        </mxCell>
        <mxCell id="idPZOw37KrWaq4Scq1qP-43" style="shape=partialRectangle;html=1;whiteSpace=wrap;connectable=0;overflow=hidden;fillColor=none;top=0;left=0;bottom=0;right=0;pointerEvents=1;fontSize=16;labelBackgroundColor=none;" vertex="1" parent="idPZOw37KrWaq4Scq1qP-41">
          <mxGeometry x="110" width="50" height="40" as="geometry">
            <mxRectangle width="50" height="40" as="alternateBounds" />
          </mxGeometry>
        </mxCell>
        <mxCell id="idPZOw37KrWaq4Scq1qP-44" style="shape=partialRectangle;html=1;whiteSpace=wrap;connectable=0;overflow=hidden;fillColor=none;top=0;left=0;bottom=0;right=0;pointerEvents=1;fontSize=16;labelBackgroundColor=none;" vertex="1" parent="idPZOw37KrWaq4Scq1qP-41">
          <mxGeometry x="160" width="20" height="40" as="geometry">
            <mxRectangle width="20" height="40" as="alternateBounds" />
          </mxGeometry>
        </mxCell>
        <mxCell id="idPZOw37KrWaq4Scq1qP-28" value="" style="shape=tableRow;horizontal=0;startSize=0;swimlaneHead=0;swimlaneBody=0;top=0;left=0;bottom=0;right=0;collapsible=0;dropTarget=0;fillColor=none;points=[[0,0.5],[1,0.5]];portConstraint=eastwest;fontSize=16;labelBackgroundColor=none;" vertex="1" parent="idPZOw37KrWaq4Scq1qP-27">
          <mxGeometry y="110" width="180" height="40" as="geometry" />
        </mxCell>
        <mxCell id="idPZOw37KrWaq4Scq1qP-29" value="level" style="shape=partialRectangle;html=1;whiteSpace=wrap;connectable=0;overflow=hidden;fillColor=none;top=0;left=0;bottom=0;right=0;pointerEvents=1;fontSize=16;labelBackgroundColor=none;" vertex="1" parent="idPZOw37KrWaq4Scq1qP-28">
          <mxGeometry width="110" height="40" as="geometry">
            <mxRectangle width="110" height="40" as="alternateBounds" />
          </mxGeometry>
        </mxCell>
        <mxCell id="idPZOw37KrWaq4Scq1qP-30" value="" style="shape=partialRectangle;html=1;whiteSpace=wrap;connectable=0;overflow=hidden;fillColor=none;top=0;left=0;bottom=0;right=0;pointerEvents=1;fontSize=16;labelBackgroundColor=none;" vertex="1" parent="idPZOw37KrWaq4Scq1qP-28">
          <mxGeometry x="110" width="50" height="40" as="geometry">
            <mxRectangle width="50" height="40" as="alternateBounds" />
          </mxGeometry>
        </mxCell>
        <mxCell id="idPZOw37KrWaq4Scq1qP-31" value="" style="shape=partialRectangle;html=1;whiteSpace=wrap;connectable=0;overflow=hidden;fillColor=none;top=0;left=0;bottom=0;right=0;pointerEvents=1;fontSize=16;labelBackgroundColor=none;" vertex="1" parent="idPZOw37KrWaq4Scq1qP-28">
          <mxGeometry x="160" width="20" height="40" as="geometry">
            <mxRectangle width="20" height="40" as="alternateBounds" />
          </mxGeometry>
        </mxCell>
        <mxCell id="idPZOw37KrWaq4Scq1qP-32" value="" style="shape=tableRow;horizontal=0;startSize=0;swimlaneHead=0;swimlaneBody=0;top=0;left=0;bottom=0;right=0;collapsible=0;dropTarget=0;fillColor=none;points=[[0,0.5],[1,0.5]];portConstraint=eastwest;fontSize=16;labelBackgroundColor=none;" vertex="1" parent="idPZOw37KrWaq4Scq1qP-27">
          <mxGeometry y="150" width="180" height="40" as="geometry" />
        </mxCell>
        <mxCell id="idPZOw37KrWaq4Scq1qP-33" value="departiment_id" style="shape=partialRectangle;html=1;whiteSpace=wrap;connectable=0;overflow=hidden;fillColor=none;top=0;left=0;bottom=0;right=0;pointerEvents=1;fontSize=16;labelBackgroundColor=none;" vertex="1" parent="idPZOw37KrWaq4Scq1qP-32">
          <mxGeometry width="110" height="40" as="geometry">
            <mxRectangle width="110" height="40" as="alternateBounds" />
          </mxGeometry>
        </mxCell>
        <mxCell id="idPZOw37KrWaq4Scq1qP-34" value="FK" style="shape=partialRectangle;html=1;whiteSpace=wrap;connectable=0;overflow=hidden;fillColor=none;top=0;left=0;bottom=0;right=0;pointerEvents=1;fontSize=16;labelBackgroundColor=none;" vertex="1" parent="idPZOw37KrWaq4Scq1qP-32">
          <mxGeometry x="110" width="50" height="40" as="geometry">
            <mxRectangle width="50" height="40" as="alternateBounds" />
          </mxGeometry>
        </mxCell>
        <mxCell id="idPZOw37KrWaq4Scq1qP-35" value="" style="shape=partialRectangle;html=1;whiteSpace=wrap;connectable=0;overflow=hidden;fillColor=none;top=0;left=0;bottom=0;right=0;pointerEvents=1;fontSize=16;labelBackgroundColor=none;" vertex="1" parent="idPZOw37KrWaq4Scq1qP-32">
          <mxGeometry x="160" width="20" height="40" as="geometry">
            <mxRectangle width="20" height="40" as="alternateBounds" />
          </mxGeometry>
        </mxCell>
        <mxCell id="idPZOw37KrWaq4Scq1qP-36" value="" style="shape=tableRow;horizontal=0;startSize=0;swimlaneHead=0;swimlaneBody=0;top=0;left=0;bottom=0;right=0;collapsible=0;dropTarget=0;fillColor=none;points=[[0,0.5],[1,0.5]];portConstraint=eastwest;fontSize=16;labelBackgroundColor=none;" vertex="1" parent="idPZOw37KrWaq4Scq1qP-27">
          <mxGeometry y="190" width="180" height="40" as="geometry" />
        </mxCell>
        <mxCell id="idPZOw37KrWaq4Scq1qP-37" value="" style="shape=partialRectangle;html=1;whiteSpace=wrap;connectable=0;overflow=hidden;fillColor=none;top=0;left=0;bottom=0;right=0;pointerEvents=1;fontSize=16;labelBackgroundColor=none;" vertex="1" parent="idPZOw37KrWaq4Scq1qP-36">
          <mxGeometry width="110" height="40" as="geometry">
            <mxRectangle width="110" height="40" as="alternateBounds" />
          </mxGeometry>
        </mxCell>
        <mxCell id="idPZOw37KrWaq4Scq1qP-38" value="" style="shape=partialRectangle;html=1;whiteSpace=wrap;connectable=0;overflow=hidden;fillColor=none;top=0;left=0;bottom=0;right=0;pointerEvents=1;fontSize=16;labelBackgroundColor=none;" vertex="1" parent="idPZOw37KrWaq4Scq1qP-36">
          <mxGeometry x="110" width="50" height="40" as="geometry">
            <mxRectangle width="50" height="40" as="alternateBounds" />
          </mxGeometry>
        </mxCell>
        <mxCell id="idPZOw37KrWaq4Scq1qP-39" value="" style="shape=partialRectangle;html=1;whiteSpace=wrap;connectable=0;overflow=hidden;fillColor=none;top=0;left=0;bottom=0;right=0;pointerEvents=1;fontSize=16;labelBackgroundColor=none;" vertex="1" parent="idPZOw37KrWaq4Scq1qP-36">
          <mxGeometry x="160" width="20" height="40" as="geometry">
            <mxRectangle width="20" height="40" as="alternateBounds" />
          </mxGeometry>
        </mxCell>
        <mxCell id="idPZOw37KrWaq4Scq1qP-57" value="courses" style="shape=table;startSize=30;container=1;collapsible=0;childLayout=tableLayout;fontSize=16;labelBackgroundColor=none;" vertex="1" parent="1">
          <mxGeometry x="60" y="40" width="180" height="220" as="geometry" />
        </mxCell>
        <mxCell id="idPZOw37KrWaq4Scq1qP-58" style="shape=tableRow;horizontal=0;startSize=0;swimlaneHead=0;swimlaneBody=0;top=0;left=0;bottom=0;right=0;collapsible=0;dropTarget=0;fillColor=none;points=[[0,0.5],[1,0.5]];portConstraint=eastwest;fontSize=16;labelBackgroundColor=none;" vertex="1" parent="idPZOw37KrWaq4Scq1qP-57">
          <mxGeometry y="30" width="180" height="30" as="geometry" />
        </mxCell>
        <mxCell id="idPZOw37KrWaq4Scq1qP-59" value="id" style="shape=partialRectangle;html=1;whiteSpace=wrap;connectable=0;overflow=hidden;fillColor=none;top=0;left=0;bottom=0;right=0;pointerEvents=1;fontSize=16;labelBackgroundColor=none;" vertex="1" parent="idPZOw37KrWaq4Scq1qP-58">
          <mxGeometry width="110" height="30" as="geometry">
            <mxRectangle width="110" height="30" as="alternateBounds" />
          </mxGeometry>
        </mxCell>
        <mxCell id="idPZOw37KrWaq4Scq1qP-60" value="PK" style="shape=partialRectangle;html=1;whiteSpace=wrap;connectable=0;overflow=hidden;fillColor=none;top=0;left=0;bottom=0;right=0;pointerEvents=1;fontSize=16;labelBackgroundColor=none;" vertex="1" parent="idPZOw37KrWaq4Scq1qP-58">
          <mxGeometry x="110" width="50" height="30" as="geometry">
            <mxRectangle width="50" height="30" as="alternateBounds" />
          </mxGeometry>
        </mxCell>
        <mxCell id="idPZOw37KrWaq4Scq1qP-61" style="shape=partialRectangle;html=1;whiteSpace=wrap;connectable=0;overflow=hidden;fillColor=none;top=0;left=0;bottom=0;right=0;pointerEvents=1;fontSize=16;labelBackgroundColor=none;" vertex="1" parent="idPZOw37KrWaq4Scq1qP-58">
          <mxGeometry x="160" width="20" height="30" as="geometry">
            <mxRectangle width="20" height="30" as="alternateBounds" />
          </mxGeometry>
        </mxCell>
        <mxCell id="idPZOw37KrWaq4Scq1qP-62" style="shape=tableRow;horizontal=0;startSize=0;swimlaneHead=0;swimlaneBody=0;top=0;left=0;bottom=0;right=0;collapsible=0;dropTarget=0;fillColor=none;points=[[0,0.5],[1,0.5]];portConstraint=eastwest;fontSize=16;labelBackgroundColor=none;" vertex="1" parent="idPZOw37KrWaq4Scq1qP-57">
          <mxGeometry y="60" width="180" height="40" as="geometry" />
        </mxCell>
        <mxCell id="idPZOw37KrWaq4Scq1qP-63" value="name" style="shape=partialRectangle;html=1;whiteSpace=wrap;connectable=0;overflow=hidden;fillColor=none;top=0;left=0;bottom=0;right=0;pointerEvents=1;fontSize=16;labelBackgroundColor=none;" vertex="1" parent="idPZOw37KrWaq4Scq1qP-62">
          <mxGeometry width="110" height="40" as="geometry">
            <mxRectangle width="110" height="40" as="alternateBounds" />
          </mxGeometry>
        </mxCell>
        <mxCell id="idPZOw37KrWaq4Scq1qP-64" style="shape=partialRectangle;html=1;whiteSpace=wrap;connectable=0;overflow=hidden;fillColor=none;top=0;left=0;bottom=0;right=0;pointerEvents=1;fontSize=16;labelBackgroundColor=none;" vertex="1" parent="idPZOw37KrWaq4Scq1qP-62">
          <mxGeometry x="110" width="50" height="40" as="geometry">
            <mxRectangle width="50" height="40" as="alternateBounds" />
          </mxGeometry>
        </mxCell>
        <mxCell id="idPZOw37KrWaq4Scq1qP-65" style="shape=partialRectangle;html=1;whiteSpace=wrap;connectable=0;overflow=hidden;fillColor=none;top=0;left=0;bottom=0;right=0;pointerEvents=1;fontSize=16;labelBackgroundColor=none;" vertex="1" parent="idPZOw37KrWaq4Scq1qP-62">
          <mxGeometry x="160" width="20" height="40" as="geometry">
            <mxRectangle width="20" height="40" as="alternateBounds" />
          </mxGeometry>
        </mxCell>
        <mxCell id="idPZOw37KrWaq4Scq1qP-66" value="" style="shape=tableRow;horizontal=0;startSize=0;swimlaneHead=0;swimlaneBody=0;top=0;left=0;bottom=0;right=0;collapsible=0;dropTarget=0;fillColor=none;points=[[0,0.5],[1,0.5]];portConstraint=eastwest;fontSize=16;labelBackgroundColor=none;" vertex="1" parent="idPZOw37KrWaq4Scq1qP-57">
          <mxGeometry y="100" width="180" height="40" as="geometry" />
        </mxCell>
        <mxCell id="idPZOw37KrWaq4Scq1qP-67" value="description" style="shape=partialRectangle;html=1;whiteSpace=wrap;connectable=0;overflow=hidden;fillColor=none;top=0;left=0;bottom=0;right=0;pointerEvents=1;fontSize=16;labelBackgroundColor=none;" vertex="1" parent="idPZOw37KrWaq4Scq1qP-66">
          <mxGeometry width="110" height="40" as="geometry">
            <mxRectangle width="110" height="40" as="alternateBounds" />
          </mxGeometry>
        </mxCell>
        <mxCell id="idPZOw37KrWaq4Scq1qP-68" value="" style="shape=partialRectangle;html=1;whiteSpace=wrap;connectable=0;overflow=hidden;fillColor=none;top=0;left=0;bottom=0;right=0;pointerEvents=1;fontSize=16;labelBackgroundColor=none;" vertex="1" parent="idPZOw37KrWaq4Scq1qP-66">
          <mxGeometry x="110" width="50" height="40" as="geometry">
            <mxRectangle width="50" height="40" as="alternateBounds" />
          </mxGeometry>
        </mxCell>
        <mxCell id="idPZOw37KrWaq4Scq1qP-69" value="" style="shape=partialRectangle;html=1;whiteSpace=wrap;connectable=0;overflow=hidden;fillColor=none;top=0;left=0;bottom=0;right=0;pointerEvents=1;fontSize=16;labelBackgroundColor=none;" vertex="1" parent="idPZOw37KrWaq4Scq1qP-66">
          <mxGeometry x="160" width="20" height="40" as="geometry">
            <mxRectangle width="20" height="40" as="alternateBounds" />
          </mxGeometry>
        </mxCell>
        <mxCell id="idPZOw37KrWaq4Scq1qP-70" value="" style="shape=tableRow;horizontal=0;startSize=0;swimlaneHead=0;swimlaneBody=0;top=0;left=0;bottom=0;right=0;collapsible=0;dropTarget=0;fillColor=none;points=[[0,0.5],[1,0.5]];portConstraint=eastwest;fontSize=16;labelBackgroundColor=none;" vertex="1" parent="idPZOw37KrWaq4Scq1qP-57">
          <mxGeometry y="140" width="180" height="40" as="geometry" />
        </mxCell>
        <mxCell id="idPZOw37KrWaq4Scq1qP-71" value="degree_id" style="shape=partialRectangle;html=1;whiteSpace=wrap;connectable=0;overflow=hidden;fillColor=none;top=0;left=0;bottom=0;right=0;pointerEvents=1;fontSize=16;labelBackgroundColor=none;" vertex="1" parent="idPZOw37KrWaq4Scq1qP-70">
          <mxGeometry width="110" height="40" as="geometry">
            <mxRectangle width="110" height="40" as="alternateBounds" />
          </mxGeometry>
        </mxCell>
        <mxCell id="idPZOw37KrWaq4Scq1qP-72" value="FK" style="shape=partialRectangle;html=1;whiteSpace=wrap;connectable=0;overflow=hidden;fillColor=none;top=0;left=0;bottom=0;right=0;pointerEvents=1;fontSize=16;labelBackgroundColor=none;" vertex="1" parent="idPZOw37KrWaq4Scq1qP-70">
          <mxGeometry x="110" width="50" height="40" as="geometry">
            <mxRectangle width="50" height="40" as="alternateBounds" />
          </mxGeometry>
        </mxCell>
        <mxCell id="idPZOw37KrWaq4Scq1qP-73" value="" style="shape=partialRectangle;html=1;whiteSpace=wrap;connectable=0;overflow=hidden;fillColor=none;top=0;left=0;bottom=0;right=0;pointerEvents=1;fontSize=16;labelBackgroundColor=none;" vertex="1" parent="idPZOw37KrWaq4Scq1qP-70">
          <mxGeometry x="160" width="20" height="40" as="geometry">
            <mxRectangle width="20" height="40" as="alternateBounds" />
          </mxGeometry>
        </mxCell>
        <mxCell id="idPZOw37KrWaq4Scq1qP-74" value="" style="shape=tableRow;horizontal=0;startSize=0;swimlaneHead=0;swimlaneBody=0;top=0;left=0;bottom=0;right=0;collapsible=0;dropTarget=0;fillColor=none;points=[[0,0.5],[1,0.5]];portConstraint=eastwest;fontSize=16;labelBackgroundColor=none;" vertex="1" parent="idPZOw37KrWaq4Scq1qP-57">
          <mxGeometry y="180" width="180" height="40" as="geometry" />
        </mxCell>
        <mxCell id="idPZOw37KrWaq4Scq1qP-75" value="" style="shape=partialRectangle;html=1;whiteSpace=wrap;connectable=0;overflow=hidden;fillColor=none;top=0;left=0;bottom=0;right=0;pointerEvents=1;fontSize=16;labelBackgroundColor=none;" vertex="1" parent="idPZOw37KrWaq4Scq1qP-74">
          <mxGeometry width="110" height="40" as="geometry">
            <mxRectangle width="110" height="40" as="alternateBounds" />
          </mxGeometry>
        </mxCell>
        <mxCell id="idPZOw37KrWaq4Scq1qP-76" value="" style="shape=partialRectangle;html=1;whiteSpace=wrap;connectable=0;overflow=hidden;fillColor=none;top=0;left=0;bottom=0;right=0;pointerEvents=1;fontSize=16;labelBackgroundColor=none;" vertex="1" parent="idPZOw37KrWaq4Scq1qP-74">
          <mxGeometry x="110" width="50" height="40" as="geometry">
            <mxRectangle width="50" height="40" as="alternateBounds" />
          </mxGeometry>
        </mxCell>
        <mxCell id="idPZOw37KrWaq4Scq1qP-77" value="" style="shape=partialRectangle;html=1;whiteSpace=wrap;connectable=0;overflow=hidden;fillColor=none;top=0;left=0;bottom=0;right=0;pointerEvents=1;fontSize=16;labelBackgroundColor=none;" vertex="1" parent="idPZOw37KrWaq4Scq1qP-74">
          <mxGeometry x="160" width="20" height="40" as="geometry">
            <mxRectangle width="20" height="40" as="alternateBounds" />
          </mxGeometry>
        </mxCell>
        <mxCell id="idPZOw37KrWaq4Scq1qP-78" value="" style="rhombus;whiteSpace=wrap;html=1;" vertex="1" parent="1">
          <mxGeometry x="379" y="170" width="80" height="80" as="geometry" />
        </mxCell>
        <mxCell id="idPZOw37KrWaq4Scq1qP-79" style="edgeStyle=orthogonalEdgeStyle;rounded=0;orthogonalLoop=1;jettySize=auto;html=1;exitX=1;exitY=0.5;exitDx=0;exitDy=0;entryX=0.5;entryY=1;entryDx=0;entryDy=0;" edge="1" parent="1" source="idPZOw37KrWaq4Scq1qP-45" target="idPZOw37KrWaq4Scq1qP-78">
          <mxGeometry relative="1" as="geometry">
            <Array as="points">
              <mxPoint x="400" y="330" />
            </Array>
          </mxGeometry>
        </mxCell>
        <mxCell id="idPZOw37KrWaq4Scq1qP-82" value="1" style="edgeLabel;html=1;align=center;verticalAlign=middle;resizable=0;points=[];fontSize=22;" vertex="1" connectable="0" parent="idPZOw37KrWaq4Scq1qP-79">
          <mxGeometry x="-0.1929" y="1" relative="1" as="geometry">
            <mxPoint x="1" as="offset" />
          </mxGeometry>
        </mxCell>
        <mxCell id="idPZOw37KrWaq4Scq1qP-80" style="edgeStyle=orthogonalEdgeStyle;rounded=0;orthogonalLoop=1;jettySize=auto;html=1;exitX=0;exitY=0.5;exitDx=0;exitDy=0;entryX=1;entryY=0.5;entryDx=0;entryDy=0;" edge="1" parent="1" source="idPZOw37KrWaq4Scq1qP-78" target="idPZOw37KrWaq4Scq1qP-70">
          <mxGeometry relative="1" as="geometry">
            <mxPoint x="300" y="180" as="targetPoint" />
            <Array as="points">
              <mxPoint x="379" y="200" />
              <mxPoint x="340" y="200" />
              <mxPoint x="340" y="180" />
              <mxPoint x="240" y="180" />
            </Array>
          </mxGeometry>
        </mxCell>
        <mxCell id="idPZOw37KrWaq4Scq1qP-81" value="&lt;font style=&quot;font-size: 22px;&quot;&gt;N&lt;/font&gt;" style="edgeLabel;html=1;align=center;verticalAlign=middle;resizable=0;points=[];" vertex="1" connectable="0" parent="idPZOw37KrWaq4Scq1qP-80">
          <mxGeometry x="0.5639" relative="1" as="geometry">
            <mxPoint as="offset" />
          </mxGeometry>
        </mxCell>
        <mxCell id="idPZOw37KrWaq4Scq1qP-95" value="teachers" style="shape=table;startSize=30;container=1;collapsible=0;childLayout=tableLayout;strokeColor=default;fontSize=16;" vertex="1" parent="1">
          <mxGeometry x="510" y="40" width="180" height="150" as="geometry" />
        </mxCell>
        <mxCell id="idPZOw37KrWaq4Scq1qP-96" value="" style="shape=tableRow;horizontal=0;startSize=0;swimlaneHead=0;swimlaneBody=0;strokeColor=inherit;top=0;left=0;bottom=0;right=0;collapsible=0;dropTarget=0;fillColor=none;points=[[0,0.5],[1,0.5]];portConstraint=eastwest;fontSize=16;" vertex="1" parent="idPZOw37KrWaq4Scq1qP-95">
          <mxGeometry y="30" width="180" height="40" as="geometry" />
        </mxCell>
        <mxCell id="idPZOw37KrWaq4Scq1qP-97" value="id" style="shape=partialRectangle;html=1;whiteSpace=wrap;connectable=0;strokeColor=inherit;overflow=hidden;fillColor=none;top=0;left=0;bottom=0;right=0;pointerEvents=1;fontSize=16;" vertex="1" parent="idPZOw37KrWaq4Scq1qP-96">
          <mxGeometry width="90" height="40" as="geometry">
            <mxRectangle width="90" height="40" as="alternateBounds" />
          </mxGeometry>
        </mxCell>
        <mxCell id="idPZOw37KrWaq4Scq1qP-98" value="PK" style="shape=partialRectangle;html=1;whiteSpace=wrap;connectable=0;strokeColor=inherit;overflow=hidden;fillColor=none;top=0;left=0;bottom=0;right=0;pointerEvents=1;fontSize=16;" vertex="1" parent="idPZOw37KrWaq4Scq1qP-96">
          <mxGeometry x="90" width="70" height="40" as="geometry">
            <mxRectangle width="70" height="40" as="alternateBounds" />
          </mxGeometry>
        </mxCell>
        <mxCell id="idPZOw37KrWaq4Scq1qP-99" value="" style="shape=partialRectangle;html=1;whiteSpace=wrap;connectable=0;strokeColor=inherit;overflow=hidden;fillColor=none;top=0;left=0;bottom=0;right=0;pointerEvents=1;fontSize=16;" vertex="1" parent="idPZOw37KrWaq4Scq1qP-96">
          <mxGeometry x="160" width="20" height="40" as="geometry">
            <mxRectangle width="20" height="40" as="alternateBounds" />
          </mxGeometry>
        </mxCell>
        <mxCell id="idPZOw37KrWaq4Scq1qP-100" value="" style="shape=tableRow;horizontal=0;startSize=0;swimlaneHead=0;swimlaneBody=0;strokeColor=inherit;top=0;left=0;bottom=0;right=0;collapsible=0;dropTarget=0;fillColor=none;points=[[0,0.5],[1,0.5]];portConstraint=eastwest;fontSize=16;" vertex="1" parent="idPZOw37KrWaq4Scq1qP-95">
          <mxGeometry y="70" width="180" height="40" as="geometry" />
        </mxCell>
        <mxCell id="idPZOw37KrWaq4Scq1qP-101" value="name" style="shape=partialRectangle;html=1;whiteSpace=wrap;connectable=0;strokeColor=inherit;overflow=hidden;fillColor=none;top=0;left=0;bottom=0;right=0;pointerEvents=1;fontSize=16;" vertex="1" parent="idPZOw37KrWaq4Scq1qP-100">
          <mxGeometry width="90" height="40" as="geometry">
            <mxRectangle width="90" height="40" as="alternateBounds" />
          </mxGeometry>
        </mxCell>
        <mxCell id="idPZOw37KrWaq4Scq1qP-102" value="" style="shape=partialRectangle;html=1;whiteSpace=wrap;connectable=0;strokeColor=inherit;overflow=hidden;fillColor=none;top=0;left=0;bottom=0;right=0;pointerEvents=1;fontSize=16;" vertex="1" parent="idPZOw37KrWaq4Scq1qP-100">
          <mxGeometry x="90" width="70" height="40" as="geometry">
            <mxRectangle width="70" height="40" as="alternateBounds" />
          </mxGeometry>
        </mxCell>
        <mxCell id="idPZOw37KrWaq4Scq1qP-103" value="" style="shape=partialRectangle;html=1;whiteSpace=wrap;connectable=0;strokeColor=inherit;overflow=hidden;fillColor=none;top=0;left=0;bottom=0;right=0;pointerEvents=1;fontSize=16;" vertex="1" parent="idPZOw37KrWaq4Scq1qP-100">
          <mxGeometry x="160" width="20" height="40" as="geometry">
            <mxRectangle width="20" height="40" as="alternateBounds" />
          </mxGeometry>
        </mxCell>
        <mxCell id="idPZOw37KrWaq4Scq1qP-104" value="" style="shape=tableRow;horizontal=0;startSize=0;swimlaneHead=0;swimlaneBody=0;strokeColor=inherit;top=0;left=0;bottom=0;right=0;collapsible=0;dropTarget=0;fillColor=none;points=[[0,0.5],[1,0.5]];portConstraint=eastwest;fontSize=16;" vertex="1" parent="idPZOw37KrWaq4Scq1qP-95">
          <mxGeometry y="110" width="180" height="40" as="geometry" />
        </mxCell>
        <mxCell id="idPZOw37KrWaq4Scq1qP-105" value="surname" style="shape=partialRectangle;html=1;whiteSpace=wrap;connectable=0;strokeColor=inherit;overflow=hidden;fillColor=none;top=0;left=0;bottom=0;right=0;pointerEvents=1;fontSize=16;" vertex="1" parent="idPZOw37KrWaq4Scq1qP-104">
          <mxGeometry width="90" height="40" as="geometry">
            <mxRectangle width="90" height="40" as="alternateBounds" />
          </mxGeometry>
        </mxCell>
        <mxCell id="idPZOw37KrWaq4Scq1qP-106" value="" style="shape=partialRectangle;html=1;whiteSpace=wrap;connectable=0;strokeColor=inherit;overflow=hidden;fillColor=none;top=0;left=0;bottom=0;right=0;pointerEvents=1;fontSize=16;" vertex="1" parent="idPZOw37KrWaq4Scq1qP-104">
          <mxGeometry x="90" width="70" height="40" as="geometry">
            <mxRectangle width="70" height="40" as="alternateBounds" />
          </mxGeometry>
        </mxCell>
        <mxCell id="idPZOw37KrWaq4Scq1qP-107" value="" style="shape=partialRectangle;html=1;whiteSpace=wrap;connectable=0;strokeColor=inherit;overflow=hidden;fillColor=none;top=0;left=0;bottom=0;right=0;pointerEvents=1;fontSize=16;" vertex="1" parent="idPZOw37KrWaq4Scq1qP-104">
          <mxGeometry x="160" width="20" height="40" as="geometry">
            <mxRectangle width="20" height="40" as="alternateBounds" />
          </mxGeometry>
        </mxCell>
        <mxCell id="idPZOw37KrWaq4Scq1qP-158" style="edgeStyle=orthogonalEdgeStyle;rounded=0;orthogonalLoop=1;jettySize=auto;html=1;exitX=0.5;exitY=0;exitDx=0;exitDy=0;" edge="1" parent="1" source="idPZOw37KrWaq4Scq1qP-112">
          <mxGeometry relative="1" as="geometry">
            <mxPoint x="389.7692307692305" y="-60" as="targetPoint" />
          </mxGeometry>
        </mxCell>
        <mxCell id="idPZOw37KrWaq4Scq1qP-159" value="&lt;font style=&quot;font-size: 17px;&quot;&gt;PIVOT&lt;/font&gt;" style="edgeLabel;html=1;align=center;verticalAlign=middle;resizable=0;points=[];" vertex="1" connectable="0" parent="idPZOw37KrWaq4Scq1qP-158">
          <mxGeometry x="-0.2567" y="6" relative="1" as="geometry">
            <mxPoint as="offset" />
          </mxGeometry>
        </mxCell>
        <mxCell id="idPZOw37KrWaq4Scq1qP-112" value="" style="rhombus;whiteSpace=wrap;html=1;" vertex="1" parent="1">
          <mxGeometry x="350" y="40" width="80" height="80" as="geometry" />
        </mxCell>
        <mxCell id="idPZOw37KrWaq4Scq1qP-113" style="edgeStyle=orthogonalEdgeStyle;rounded=0;orthogonalLoop=1;jettySize=auto;html=1;entryX=1;entryY=0.5;entryDx=0;entryDy=0;" edge="1" parent="1" source="idPZOw37KrWaq4Scq1qP-96" target="idPZOw37KrWaq4Scq1qP-112">
          <mxGeometry relative="1" as="geometry" />
        </mxCell>
        <mxCell id="idPZOw37KrWaq4Scq1qP-115" value="&lt;font style=&quot;font-size: 22px;&quot;&gt;N&lt;/font&gt;" style="edgeLabel;html=1;align=center;verticalAlign=middle;resizable=0;points=[];" vertex="1" connectable="0" parent="idPZOw37KrWaq4Scq1qP-113">
          <mxGeometry x="-0.0533" y="3" relative="1" as="geometry">
            <mxPoint as="offset" />
          </mxGeometry>
        </mxCell>
        <mxCell id="idPZOw37KrWaq4Scq1qP-116" style="edgeStyle=orthogonalEdgeStyle;rounded=0;orthogonalLoop=1;jettySize=auto;html=1;exitX=1;exitY=0.5;exitDx=0;exitDy=0;entryX=0;entryY=0.5;entryDx=0;entryDy=0;" edge="1" parent="1" source="idPZOw37KrWaq4Scq1qP-58" target="idPZOw37KrWaq4Scq1qP-112">
          <mxGeometry relative="1" as="geometry" />
        </mxCell>
        <mxCell id="idPZOw37KrWaq4Scq1qP-117" value="&lt;font style=&quot;font-size: 22px;&quot;&gt;N&lt;/font&gt;" style="edgeLabel;html=1;align=center;verticalAlign=middle;resizable=0;points=[];" vertex="1" connectable="0" parent="idPZOw37KrWaq4Scq1qP-116">
          <mxGeometry x="-0.0261" y="-4" relative="1" as="geometry">
            <mxPoint as="offset" />
          </mxGeometry>
        </mxCell>
        <mxCell id="idPZOw37KrWaq4Scq1qP-118" value="students" style="shape=table;startSize=50;container=1;collapsible=0;childLayout=tableLayout;strokeColor=default;fontSize=16;" vertex="1" parent="1">
          <mxGeometry x="-380" y="400" width="180" height="184" as="geometry" />
        </mxCell>
        <mxCell id="idPZOw37KrWaq4Scq1qP-201" style="shape=tableRow;horizontal=0;startSize=0;swimlaneHead=0;swimlaneBody=0;strokeColor=inherit;top=0;left=0;bottom=0;right=0;collapsible=0;dropTarget=0;fillColor=none;points=[[0,0.5],[1,0.5]];portConstraint=eastwest;fontSize=16;" vertex="1" parent="idPZOw37KrWaq4Scq1qP-118">
          <mxGeometry y="50" width="180" height="34" as="geometry" />
        </mxCell>
        <mxCell id="idPZOw37KrWaq4Scq1qP-202" value="id" style="shape=partialRectangle;html=1;whiteSpace=wrap;connectable=0;strokeColor=inherit;overflow=hidden;fillColor=none;top=0;left=0;bottom=0;right=0;pointerEvents=1;fontSize=16;" vertex="1" parent="idPZOw37KrWaq4Scq1qP-201">
          <mxGeometry width="90" height="34" as="geometry">
            <mxRectangle width="90" height="34" as="alternateBounds" />
          </mxGeometry>
        </mxCell>
        <mxCell id="idPZOw37KrWaq4Scq1qP-203" value="PK" style="shape=partialRectangle;html=1;whiteSpace=wrap;connectable=0;strokeColor=inherit;overflow=hidden;fillColor=none;top=0;left=0;bottom=0;right=0;pointerEvents=1;fontSize=16;" vertex="1" parent="idPZOw37KrWaq4Scq1qP-201">
          <mxGeometry x="90" width="60" height="34" as="geometry">
            <mxRectangle width="60" height="34" as="alternateBounds" />
          </mxGeometry>
        </mxCell>
        <mxCell id="idPZOw37KrWaq4Scq1qP-204" style="shape=partialRectangle;html=1;whiteSpace=wrap;connectable=0;strokeColor=inherit;overflow=hidden;fillColor=none;top=0;left=0;bottom=0;right=0;pointerEvents=1;fontSize=16;" vertex="1" parent="idPZOw37KrWaq4Scq1qP-201">
          <mxGeometry x="150" width="30" height="34" as="geometry">
            <mxRectangle width="30" height="34" as="alternateBounds" />
          </mxGeometry>
        </mxCell>
        <mxCell id="idPZOw37KrWaq4Scq1qP-119" value="" style="shape=tableRow;horizontal=0;startSize=0;swimlaneHead=0;swimlaneBody=0;strokeColor=inherit;top=0;left=0;bottom=0;right=0;collapsible=0;dropTarget=0;fillColor=none;points=[[0,0.5],[1,0.5]];portConstraint=eastwest;fontSize=16;" vertex="1" parent="idPZOw37KrWaq4Scq1qP-118">
          <mxGeometry y="84" width="180" height="34" as="geometry" />
        </mxCell>
        <mxCell id="idPZOw37KrWaq4Scq1qP-120" value="name" style="shape=partialRectangle;html=1;whiteSpace=wrap;connectable=0;strokeColor=inherit;overflow=hidden;fillColor=none;top=0;left=0;bottom=0;right=0;pointerEvents=1;fontSize=16;" vertex="1" parent="idPZOw37KrWaq4Scq1qP-119">
          <mxGeometry width="90" height="34" as="geometry">
            <mxRectangle width="90" height="34" as="alternateBounds" />
          </mxGeometry>
        </mxCell>
        <mxCell id="idPZOw37KrWaq4Scq1qP-121" value="" style="shape=partialRectangle;html=1;whiteSpace=wrap;connectable=0;strokeColor=inherit;overflow=hidden;fillColor=none;top=0;left=0;bottom=0;right=0;pointerEvents=1;fontSize=16;" vertex="1" parent="idPZOw37KrWaq4Scq1qP-119">
          <mxGeometry x="90" width="60" height="34" as="geometry">
            <mxRectangle width="60" height="34" as="alternateBounds" />
          </mxGeometry>
        </mxCell>
        <mxCell id="idPZOw37KrWaq4Scq1qP-122" value="" style="shape=partialRectangle;html=1;whiteSpace=wrap;connectable=0;strokeColor=inherit;overflow=hidden;fillColor=none;top=0;left=0;bottom=0;right=0;pointerEvents=1;fontSize=16;" vertex="1" parent="idPZOw37KrWaq4Scq1qP-119">
          <mxGeometry x="150" width="30" height="34" as="geometry">
            <mxRectangle width="30" height="34" as="alternateBounds" />
          </mxGeometry>
        </mxCell>
        <mxCell id="idPZOw37KrWaq4Scq1qP-123" value="" style="shape=tableRow;horizontal=0;startSize=0;swimlaneHead=0;swimlaneBody=0;strokeColor=inherit;top=0;left=0;bottom=0;right=0;collapsible=0;dropTarget=0;fillColor=none;points=[[0,0.5],[1,0.5]];portConstraint=eastwest;fontSize=16;" vertex="1" parent="idPZOw37KrWaq4Scq1qP-118">
          <mxGeometry y="118" width="180" height="32" as="geometry" />
        </mxCell>
        <mxCell id="idPZOw37KrWaq4Scq1qP-124" value="surname" style="shape=partialRectangle;html=1;whiteSpace=wrap;connectable=0;strokeColor=inherit;overflow=hidden;fillColor=none;top=0;left=0;bottom=0;right=0;pointerEvents=1;fontSize=16;" vertex="1" parent="idPZOw37KrWaq4Scq1qP-123">
          <mxGeometry width="90" height="32" as="geometry">
            <mxRectangle width="90" height="32" as="alternateBounds" />
          </mxGeometry>
        </mxCell>
        <mxCell id="idPZOw37KrWaq4Scq1qP-125" value="" style="shape=partialRectangle;html=1;whiteSpace=wrap;connectable=0;strokeColor=inherit;overflow=hidden;fillColor=none;top=0;left=0;bottom=0;right=0;pointerEvents=1;fontSize=16;" vertex="1" parent="idPZOw37KrWaq4Scq1qP-123">
          <mxGeometry x="90" width="60" height="32" as="geometry">
            <mxRectangle width="60" height="32" as="alternateBounds" />
          </mxGeometry>
        </mxCell>
        <mxCell id="idPZOw37KrWaq4Scq1qP-126" value="" style="shape=partialRectangle;html=1;whiteSpace=wrap;connectable=0;strokeColor=inherit;overflow=hidden;fillColor=none;top=0;left=0;bottom=0;right=0;pointerEvents=1;fontSize=16;" vertex="1" parent="idPZOw37KrWaq4Scq1qP-123">
          <mxGeometry x="150" width="30" height="32" as="geometry">
            <mxRectangle width="30" height="32" as="alternateBounds" />
          </mxGeometry>
        </mxCell>
        <mxCell id="idPZOw37KrWaq4Scq1qP-127" value="" style="shape=tableRow;horizontal=0;startSize=0;swimlaneHead=0;swimlaneBody=0;strokeColor=inherit;top=0;left=0;bottom=0;right=0;collapsible=0;dropTarget=0;fillColor=none;points=[[0,0.5],[1,0.5]];portConstraint=eastwest;fontSize=16;" vertex="1" parent="idPZOw37KrWaq4Scq1qP-118">
          <mxGeometry y="150" width="180" height="34" as="geometry" />
        </mxCell>
        <mxCell id="idPZOw37KrWaq4Scq1qP-128" value="degree_id" style="shape=partialRectangle;html=1;whiteSpace=wrap;connectable=0;strokeColor=inherit;overflow=hidden;fillColor=none;top=0;left=0;bottom=0;right=0;pointerEvents=1;fontSize=16;" vertex="1" parent="idPZOw37KrWaq4Scq1qP-127">
          <mxGeometry width="90" height="34" as="geometry">
            <mxRectangle width="90" height="34" as="alternateBounds" />
          </mxGeometry>
        </mxCell>
        <mxCell id="idPZOw37KrWaq4Scq1qP-129" value="" style="shape=partialRectangle;html=1;whiteSpace=wrap;connectable=0;strokeColor=inherit;overflow=hidden;fillColor=none;top=0;left=0;bottom=0;right=0;pointerEvents=1;fontSize=16;" vertex="1" parent="idPZOw37KrWaq4Scq1qP-127">
          <mxGeometry x="90" width="60" height="34" as="geometry">
            <mxRectangle width="60" height="34" as="alternateBounds" />
          </mxGeometry>
        </mxCell>
        <mxCell id="idPZOw37KrWaq4Scq1qP-130" value="" style="shape=partialRectangle;html=1;whiteSpace=wrap;connectable=0;strokeColor=inherit;overflow=hidden;fillColor=none;top=0;left=0;bottom=0;right=0;pointerEvents=1;fontSize=16;" vertex="1" parent="idPZOw37KrWaq4Scq1qP-127">
          <mxGeometry x="150" width="30" height="34" as="geometry">
            <mxRectangle width="30" height="34" as="alternateBounds" />
          </mxGeometry>
        </mxCell>
        <mxCell id="idPZOw37KrWaq4Scq1qP-131" value="exams" style="shape=table;startSize=55;container=1;collapsible=0;childLayout=tableLayout;strokeColor=default;fontSize=16;" vertex="1" parent="1">
          <mxGeometry x="-400" y="65" width="180" height="185" as="geometry" />
        </mxCell>
        <mxCell id="idPZOw37KrWaq4Scq1qP-132" value="" style="shape=tableRow;horizontal=0;startSize=0;swimlaneHead=0;swimlaneBody=0;strokeColor=inherit;top=0;left=0;bottom=0;right=0;collapsible=0;dropTarget=0;fillColor=none;points=[[0,0.5],[1,0.5]];portConstraint=eastwest;fontSize=16;" vertex="1" parent="idPZOw37KrWaq4Scq1qP-131">
          <mxGeometry y="55" width="180" height="33" as="geometry" />
        </mxCell>
        <mxCell id="idPZOw37KrWaq4Scq1qP-133" value="id" style="shape=partialRectangle;html=1;whiteSpace=wrap;connectable=0;strokeColor=inherit;overflow=hidden;fillColor=none;top=0;left=0;bottom=0;right=0;pointerEvents=1;fontSize=16;" vertex="1" parent="idPZOw37KrWaq4Scq1qP-132">
          <mxGeometry width="90" height="33" as="geometry">
            <mxRectangle width="90" height="33" as="alternateBounds" />
          </mxGeometry>
        </mxCell>
        <mxCell id="idPZOw37KrWaq4Scq1qP-134" value="PK" style="shape=partialRectangle;html=1;whiteSpace=wrap;connectable=0;strokeColor=inherit;overflow=hidden;fillColor=none;top=0;left=0;bottom=0;right=0;pointerEvents=1;fontSize=16;" vertex="1" parent="idPZOw37KrWaq4Scq1qP-132">
          <mxGeometry x="90" width="50" height="33" as="geometry">
            <mxRectangle width="50" height="33" as="alternateBounds" />
          </mxGeometry>
        </mxCell>
        <mxCell id="idPZOw37KrWaq4Scq1qP-135" value="" style="shape=partialRectangle;html=1;whiteSpace=wrap;connectable=0;strokeColor=inherit;overflow=hidden;fillColor=none;top=0;left=0;bottom=0;right=0;pointerEvents=1;fontSize=16;" vertex="1" parent="idPZOw37KrWaq4Scq1qP-132">
          <mxGeometry x="140" width="40" height="33" as="geometry">
            <mxRectangle width="40" height="33" as="alternateBounds" />
          </mxGeometry>
        </mxCell>
        <mxCell id="idPZOw37KrWaq4Scq1qP-191" style="shape=tableRow;horizontal=0;startSize=0;swimlaneHead=0;swimlaneBody=0;strokeColor=inherit;top=0;left=0;bottom=0;right=0;collapsible=0;dropTarget=0;fillColor=none;points=[[0,0.5],[1,0.5]];portConstraint=eastwest;fontSize=16;" vertex="1" parent="idPZOw37KrWaq4Scq1qP-131">
          <mxGeometry y="88" width="180" height="32" as="geometry" />
        </mxCell>
        <mxCell id="idPZOw37KrWaq4Scq1qP-192" style="shape=partialRectangle;html=1;whiteSpace=wrap;connectable=0;strokeColor=inherit;overflow=hidden;fillColor=none;top=0;left=0;bottom=0;right=0;pointerEvents=1;fontSize=16;" vertex="1" parent="idPZOw37KrWaq4Scq1qP-191">
          <mxGeometry width="90" height="32" as="geometry">
            <mxRectangle width="90" height="32" as="alternateBounds" />
          </mxGeometry>
        </mxCell>
        <mxCell id="idPZOw37KrWaq4Scq1qP-193" style="shape=partialRectangle;html=1;whiteSpace=wrap;connectable=0;strokeColor=inherit;overflow=hidden;fillColor=none;top=0;left=0;bottom=0;right=0;pointerEvents=1;fontSize=16;" vertex="1" parent="idPZOw37KrWaq4Scq1qP-191">
          <mxGeometry x="90" width="50" height="32" as="geometry">
            <mxRectangle width="50" height="32" as="alternateBounds" />
          </mxGeometry>
        </mxCell>
        <mxCell id="idPZOw37KrWaq4Scq1qP-194" style="shape=partialRectangle;html=1;whiteSpace=wrap;connectable=0;strokeColor=inherit;overflow=hidden;fillColor=none;top=0;left=0;bottom=0;right=0;pointerEvents=1;fontSize=16;" vertex="1" parent="idPZOw37KrWaq4Scq1qP-191">
          <mxGeometry x="140" width="40" height="32" as="geometry">
            <mxRectangle width="40" height="32" as="alternateBounds" />
          </mxGeometry>
        </mxCell>
        <mxCell id="idPZOw37KrWaq4Scq1qP-136" value="" style="shape=tableRow;horizontal=0;startSize=0;swimlaneHead=0;swimlaneBody=0;strokeColor=inherit;top=0;left=0;bottom=0;right=0;collapsible=0;dropTarget=0;fillColor=none;points=[[0,0.5],[1,0.5]];portConstraint=eastwest;fontSize=16;" vertex="1" parent="idPZOw37KrWaq4Scq1qP-131">
          <mxGeometry y="120" width="180" height="33" as="geometry" />
        </mxCell>
        <mxCell id="idPZOw37KrWaq4Scq1qP-137" value="hour" style="shape=partialRectangle;html=1;whiteSpace=wrap;connectable=0;strokeColor=inherit;overflow=hidden;fillColor=none;top=0;left=0;bottom=0;right=0;pointerEvents=1;fontSize=16;" vertex="1" parent="idPZOw37KrWaq4Scq1qP-136">
          <mxGeometry width="90" height="33" as="geometry">
            <mxRectangle width="90" height="33" as="alternateBounds" />
          </mxGeometry>
        </mxCell>
        <mxCell id="idPZOw37KrWaq4Scq1qP-138" value="" style="shape=partialRectangle;html=1;whiteSpace=wrap;connectable=0;strokeColor=inherit;overflow=hidden;fillColor=none;top=0;left=0;bottom=0;right=0;pointerEvents=1;fontSize=16;" vertex="1" parent="idPZOw37KrWaq4Scq1qP-136">
          <mxGeometry x="90" width="50" height="33" as="geometry">
            <mxRectangle width="50" height="33" as="alternateBounds" />
          </mxGeometry>
        </mxCell>
        <mxCell id="idPZOw37KrWaq4Scq1qP-139" value="" style="shape=partialRectangle;html=1;whiteSpace=wrap;connectable=0;strokeColor=inherit;overflow=hidden;fillColor=none;top=0;left=0;bottom=0;right=0;pointerEvents=1;fontSize=16;" vertex="1" parent="idPZOw37KrWaq4Scq1qP-136">
          <mxGeometry x="140" width="40" height="33" as="geometry">
            <mxRectangle width="40" height="33" as="alternateBounds" />
          </mxGeometry>
        </mxCell>
        <mxCell id="idPZOw37KrWaq4Scq1qP-140" value="" style="shape=tableRow;horizontal=0;startSize=0;swimlaneHead=0;swimlaneBody=0;strokeColor=inherit;top=0;left=0;bottom=0;right=0;collapsible=0;dropTarget=0;fillColor=none;points=[[0,0.5],[1,0.5]];portConstraint=eastwest;fontSize=16;" vertex="1" parent="idPZOw37KrWaq4Scq1qP-131">
          <mxGeometry y="153" width="180" height="32" as="geometry" />
        </mxCell>
        <mxCell id="idPZOw37KrWaq4Scq1qP-141" value="courses_id" style="shape=partialRectangle;html=1;whiteSpace=wrap;connectable=0;strokeColor=inherit;overflow=hidden;fillColor=none;top=0;left=0;bottom=0;right=0;pointerEvents=1;fontSize=16;" vertex="1" parent="idPZOw37KrWaq4Scq1qP-140">
          <mxGeometry width="90" height="32" as="geometry">
            <mxRectangle width="90" height="32" as="alternateBounds" />
          </mxGeometry>
        </mxCell>
        <mxCell id="idPZOw37KrWaq4Scq1qP-142" value="FK" style="shape=partialRectangle;html=1;whiteSpace=wrap;connectable=0;strokeColor=inherit;overflow=hidden;fillColor=none;top=0;left=0;bottom=0;right=0;pointerEvents=1;fontSize=16;" vertex="1" parent="idPZOw37KrWaq4Scq1qP-140">
          <mxGeometry x="90" width="50" height="32" as="geometry">
            <mxRectangle width="50" height="32" as="alternateBounds" />
          </mxGeometry>
        </mxCell>
        <mxCell id="idPZOw37KrWaq4Scq1qP-143" value="" style="shape=partialRectangle;html=1;whiteSpace=wrap;connectable=0;strokeColor=inherit;overflow=hidden;fillColor=none;top=0;left=0;bottom=0;right=0;pointerEvents=1;fontSize=16;" vertex="1" parent="idPZOw37KrWaq4Scq1qP-140">
          <mxGeometry x="140" width="40" height="32" as="geometry">
            <mxRectangle width="40" height="32" as="alternateBounds" />
          </mxGeometry>
        </mxCell>
        <mxCell id="idPZOw37KrWaq4Scq1qP-144" value="course_teachers" style="shape=table;startSize=30;container=1;collapsible=0;childLayout=tableLayout;strokeColor=default;fontSize=16;" vertex="1" parent="1">
          <mxGeometry x="300" y="-230" width="180" height="160" as="geometry" />
        </mxCell>
        <mxCell id="idPZOw37KrWaq4Scq1qP-145" value="" style="shape=tableRow;horizontal=0;startSize=0;swimlaneHead=0;swimlaneBody=0;strokeColor=inherit;top=0;left=0;bottom=0;right=0;collapsible=0;dropTarget=0;fillColor=none;points=[[0,0.5],[1,0.5]];portConstraint=eastwest;fontSize=16;" vertex="1" parent="idPZOw37KrWaq4Scq1qP-144">
          <mxGeometry y="30" width="180" height="43" as="geometry" />
        </mxCell>
        <mxCell id="idPZOw37KrWaq4Scq1qP-146" value="course_id" style="shape=partialRectangle;html=1;whiteSpace=wrap;connectable=0;strokeColor=inherit;overflow=hidden;fillColor=none;top=0;left=0;bottom=0;right=0;pointerEvents=1;fontSize=16;" vertex="1" parent="idPZOw37KrWaq4Scq1qP-145">
          <mxGeometry width="120" height="43" as="geometry">
            <mxRectangle width="120" height="43" as="alternateBounds" />
          </mxGeometry>
        </mxCell>
        <mxCell id="idPZOw37KrWaq4Scq1qP-147" value="FK" style="shape=partialRectangle;html=1;whiteSpace=wrap;connectable=0;strokeColor=inherit;overflow=hidden;fillColor=none;top=0;left=0;bottom=0;right=0;pointerEvents=1;fontSize=16;" vertex="1" parent="idPZOw37KrWaq4Scq1qP-145">
          <mxGeometry x="120" width="40" height="43" as="geometry">
            <mxRectangle width="40" height="43" as="alternateBounds" />
          </mxGeometry>
        </mxCell>
        <mxCell id="idPZOw37KrWaq4Scq1qP-148" value="" style="shape=partialRectangle;html=1;whiteSpace=wrap;connectable=0;strokeColor=inherit;overflow=hidden;fillColor=none;top=0;left=0;bottom=0;right=0;pointerEvents=1;fontSize=16;" vertex="1" parent="idPZOw37KrWaq4Scq1qP-145">
          <mxGeometry x="160" width="20" height="43" as="geometry">
            <mxRectangle width="20" height="43" as="alternateBounds" />
          </mxGeometry>
        </mxCell>
        <mxCell id="idPZOw37KrWaq4Scq1qP-149" value="" style="shape=tableRow;horizontal=0;startSize=0;swimlaneHead=0;swimlaneBody=0;strokeColor=inherit;top=0;left=0;bottom=0;right=0;collapsible=0;dropTarget=0;fillColor=none;points=[[0,0.5],[1,0.5]];portConstraint=eastwest;fontSize=16;" vertex="1" parent="idPZOw37KrWaq4Scq1qP-144">
          <mxGeometry y="73" width="180" height="44" as="geometry" />
        </mxCell>
        <mxCell id="idPZOw37KrWaq4Scq1qP-150" value="teacher_id" style="shape=partialRectangle;html=1;whiteSpace=wrap;connectable=0;strokeColor=inherit;overflow=hidden;fillColor=none;top=0;left=0;bottom=0;right=0;pointerEvents=1;fontSize=16;" vertex="1" parent="idPZOw37KrWaq4Scq1qP-149">
          <mxGeometry width="120" height="44" as="geometry">
            <mxRectangle width="120" height="44" as="alternateBounds" />
          </mxGeometry>
        </mxCell>
        <mxCell id="idPZOw37KrWaq4Scq1qP-151" value="FK" style="shape=partialRectangle;html=1;whiteSpace=wrap;connectable=0;strokeColor=inherit;overflow=hidden;fillColor=none;top=0;left=0;bottom=0;right=0;pointerEvents=1;fontSize=16;" vertex="1" parent="idPZOw37KrWaq4Scq1qP-149">
          <mxGeometry x="120" width="40" height="44" as="geometry">
            <mxRectangle width="40" height="44" as="alternateBounds" />
          </mxGeometry>
        </mxCell>
        <mxCell id="idPZOw37KrWaq4Scq1qP-152" value="" style="shape=partialRectangle;html=1;whiteSpace=wrap;connectable=0;strokeColor=inherit;overflow=hidden;fillColor=none;top=0;left=0;bottom=0;right=0;pointerEvents=1;fontSize=16;" vertex="1" parent="idPZOw37KrWaq4Scq1qP-149">
          <mxGeometry x="160" width="20" height="44" as="geometry">
            <mxRectangle width="20" height="44" as="alternateBounds" />
          </mxGeometry>
        </mxCell>
        <mxCell id="idPZOw37KrWaq4Scq1qP-153" value="" style="shape=tableRow;horizontal=0;startSize=0;swimlaneHead=0;swimlaneBody=0;strokeColor=inherit;top=0;left=0;bottom=0;right=0;collapsible=0;dropTarget=0;fillColor=none;points=[[0,0.5],[1,0.5]];portConstraint=eastwest;fontSize=16;" vertex="1" parent="idPZOw37KrWaq4Scq1qP-144">
          <mxGeometry y="117" width="180" height="43" as="geometry" />
        </mxCell>
        <mxCell id="idPZOw37KrWaq4Scq1qP-154" value="" style="shape=partialRectangle;html=1;whiteSpace=wrap;connectable=0;strokeColor=inherit;overflow=hidden;fillColor=none;top=0;left=0;bottom=0;right=0;pointerEvents=1;fontSize=16;" vertex="1" parent="idPZOw37KrWaq4Scq1qP-153">
          <mxGeometry width="120" height="43" as="geometry">
            <mxRectangle width="120" height="43" as="alternateBounds" />
          </mxGeometry>
        </mxCell>
        <mxCell id="idPZOw37KrWaq4Scq1qP-155" value="" style="shape=partialRectangle;html=1;whiteSpace=wrap;connectable=0;strokeColor=inherit;overflow=hidden;fillColor=none;top=0;left=0;bottom=0;right=0;pointerEvents=1;fontSize=16;" vertex="1" parent="idPZOw37KrWaq4Scq1qP-153">
          <mxGeometry x="120" width="40" height="43" as="geometry">
            <mxRectangle width="40" height="43" as="alternateBounds" />
          </mxGeometry>
        </mxCell>
        <mxCell id="idPZOw37KrWaq4Scq1qP-156" value="" style="shape=partialRectangle;html=1;whiteSpace=wrap;connectable=0;strokeColor=inherit;overflow=hidden;fillColor=none;top=0;left=0;bottom=0;right=0;pointerEvents=1;fontSize=16;" vertex="1" parent="idPZOw37KrWaq4Scq1qP-153">
          <mxGeometry x="160" width="20" height="43" as="geometry">
            <mxRectangle width="20" height="43" as="alternateBounds" />
          </mxGeometry>
        </mxCell>
        <mxCell id="idPZOw37KrWaq4Scq1qP-160" value="student_exam" style="shape=table;startSize=30;container=1;collapsible=0;childLayout=tableLayout;strokeColor=default;fontSize=16;" vertex="1" parent="1">
          <mxGeometry x="-750" y="240" width="180" height="150" as="geometry" />
        </mxCell>
        <mxCell id="idPZOw37KrWaq4Scq1qP-161" value="" style="shape=tableRow;horizontal=0;startSize=0;swimlaneHead=0;swimlaneBody=0;strokeColor=inherit;top=0;left=0;bottom=0;right=0;collapsible=0;dropTarget=0;fillColor=none;points=[[0,0.5],[1,0.5]];portConstraint=eastwest;fontSize=16;" vertex="1" parent="idPZOw37KrWaq4Scq1qP-160">
          <mxGeometry y="30" width="180" height="40" as="geometry" />
        </mxCell>
        <mxCell id="idPZOw37KrWaq4Scq1qP-162" value="id" style="shape=partialRectangle;html=1;whiteSpace=wrap;connectable=0;strokeColor=inherit;overflow=hidden;fillColor=none;top=0;left=0;bottom=0;right=0;pointerEvents=1;fontSize=16;" vertex="1" parent="idPZOw37KrWaq4Scq1qP-161">
          <mxGeometry width="80" height="40" as="geometry">
            <mxRectangle width="80" height="40" as="alternateBounds" />
          </mxGeometry>
        </mxCell>
        <mxCell id="idPZOw37KrWaq4Scq1qP-163" value="PK" style="shape=partialRectangle;html=1;whiteSpace=wrap;connectable=0;strokeColor=inherit;overflow=hidden;fillColor=none;top=0;left=0;bottom=0;right=0;pointerEvents=1;fontSize=16;" vertex="1" parent="idPZOw37KrWaq4Scq1qP-161">
          <mxGeometry x="80" width="50" height="40" as="geometry">
            <mxRectangle width="50" height="40" as="alternateBounds" />
          </mxGeometry>
        </mxCell>
        <mxCell id="idPZOw37KrWaq4Scq1qP-164" value="" style="shape=partialRectangle;html=1;whiteSpace=wrap;connectable=0;strokeColor=inherit;overflow=hidden;fillColor=none;top=0;left=0;bottom=0;right=0;pointerEvents=1;fontSize=16;" vertex="1" parent="idPZOw37KrWaq4Scq1qP-161">
          <mxGeometry x="130" width="50" height="40" as="geometry">
            <mxRectangle width="50" height="40" as="alternateBounds" />
          </mxGeometry>
        </mxCell>
        <mxCell id="idPZOw37KrWaq4Scq1qP-165" value="" style="shape=tableRow;horizontal=0;startSize=0;swimlaneHead=0;swimlaneBody=0;strokeColor=inherit;top=0;left=0;bottom=0;right=0;collapsible=0;dropTarget=0;fillColor=none;points=[[0,0.5],[1,0.5]];portConstraint=eastwest;fontSize=16;" vertex="1" parent="idPZOw37KrWaq4Scq1qP-160">
          <mxGeometry y="70" width="180" height="40" as="geometry" />
        </mxCell>
        <mxCell id="idPZOw37KrWaq4Scq1qP-166" value="exam_id" style="shape=partialRectangle;html=1;whiteSpace=wrap;connectable=0;strokeColor=inherit;overflow=hidden;fillColor=none;top=0;left=0;bottom=0;right=0;pointerEvents=1;fontSize=16;" vertex="1" parent="idPZOw37KrWaq4Scq1qP-165">
          <mxGeometry width="80" height="40" as="geometry">
            <mxRectangle width="80" height="40" as="alternateBounds" />
          </mxGeometry>
        </mxCell>
        <mxCell id="idPZOw37KrWaq4Scq1qP-167" value="FK" style="shape=partialRectangle;html=1;whiteSpace=wrap;connectable=0;strokeColor=inherit;overflow=hidden;fillColor=none;top=0;left=0;bottom=0;right=0;pointerEvents=1;fontSize=16;" vertex="1" parent="idPZOw37KrWaq4Scq1qP-165">
          <mxGeometry x="80" width="50" height="40" as="geometry">
            <mxRectangle width="50" height="40" as="alternateBounds" />
          </mxGeometry>
        </mxCell>
        <mxCell id="idPZOw37KrWaq4Scq1qP-168" value="" style="shape=partialRectangle;html=1;whiteSpace=wrap;connectable=0;strokeColor=inherit;overflow=hidden;fillColor=none;top=0;left=0;bottom=0;right=0;pointerEvents=1;fontSize=16;" vertex="1" parent="idPZOw37KrWaq4Scq1qP-165">
          <mxGeometry x="130" width="50" height="40" as="geometry">
            <mxRectangle width="50" height="40" as="alternateBounds" />
          </mxGeometry>
        </mxCell>
        <mxCell id="idPZOw37KrWaq4Scq1qP-169" value="" style="shape=tableRow;horizontal=0;startSize=0;swimlaneHead=0;swimlaneBody=0;strokeColor=inherit;top=0;left=0;bottom=0;right=0;collapsible=0;dropTarget=0;fillColor=none;points=[[0,0.5],[1,0.5]];portConstraint=eastwest;fontSize=16;" vertex="1" parent="idPZOw37KrWaq4Scq1qP-160">
          <mxGeometry y="110" width="180" height="40" as="geometry" />
        </mxCell>
        <mxCell id="idPZOw37KrWaq4Scq1qP-170" value="student_id" style="shape=partialRectangle;html=1;whiteSpace=wrap;connectable=0;strokeColor=inherit;overflow=hidden;fillColor=none;top=0;left=0;bottom=0;right=0;pointerEvents=1;fontSize=16;" vertex="1" parent="idPZOw37KrWaq4Scq1qP-169">
          <mxGeometry width="80" height="40" as="geometry">
            <mxRectangle width="80" height="40" as="alternateBounds" />
          </mxGeometry>
        </mxCell>
        <mxCell id="idPZOw37KrWaq4Scq1qP-171" value="FK" style="shape=partialRectangle;html=1;whiteSpace=wrap;connectable=0;strokeColor=inherit;overflow=hidden;fillColor=none;top=0;left=0;bottom=0;right=0;pointerEvents=1;fontSize=16;" vertex="1" parent="idPZOw37KrWaq4Scq1qP-169">
          <mxGeometry x="80" width="50" height="40" as="geometry">
            <mxRectangle width="50" height="40" as="alternateBounds" />
          </mxGeometry>
        </mxCell>
        <mxCell id="idPZOw37KrWaq4Scq1qP-172" value="" style="shape=partialRectangle;html=1;whiteSpace=wrap;connectable=0;strokeColor=inherit;overflow=hidden;fillColor=none;top=0;left=0;bottom=0;right=0;pointerEvents=1;fontSize=16;" vertex="1" parent="idPZOw37KrWaq4Scq1qP-169">
          <mxGeometry x="130" width="50" height="40" as="geometry">
            <mxRectangle width="50" height="40" as="alternateBounds" />
          </mxGeometry>
        </mxCell>
        <mxCell id="idPZOw37KrWaq4Scq1qP-207" style="edgeStyle=orthogonalEdgeStyle;rounded=0;orthogonalLoop=1;jettySize=auto;html=1;exitX=0.5;exitY=0;exitDx=0;exitDy=0;entryX=0;entryY=0.5;entryDx=0;entryDy=0;" edge="1" parent="1" source="idPZOw37KrWaq4Scq1qP-174" target="idPZOw37KrWaq4Scq1qP-132">
          <mxGeometry relative="1" as="geometry" />
        </mxCell>
        <mxCell id="idPZOw37KrWaq4Scq1qP-208" value="&lt;font style=&quot;font-size: 22px;&quot;&gt;N&lt;/font&gt;" style="edgeLabel;html=1;align=center;verticalAlign=middle;resizable=0;points=[];" vertex="1" connectable="0" parent="idPZOw37KrWaq4Scq1qP-207">
          <mxGeometry x="0.6363" y="-3" relative="1" as="geometry">
            <mxPoint as="offset" />
          </mxGeometry>
        </mxCell>
        <mxCell id="idPZOw37KrWaq4Scq1qP-209" style="edgeStyle=orthogonalEdgeStyle;rounded=0;orthogonalLoop=1;jettySize=auto;html=1;exitX=0.5;exitY=1;exitDx=0;exitDy=0;entryX=0;entryY=0.5;entryDx=0;entryDy=0;" edge="1" parent="1" source="idPZOw37KrWaq4Scq1qP-174" target="idPZOw37KrWaq4Scq1qP-201">
          <mxGeometry relative="1" as="geometry" />
        </mxCell>
        <mxCell id="idPZOw37KrWaq4Scq1qP-210" value="&lt;font style=&quot;font-size: 22px;&quot;&gt;N&lt;/font&gt;" style="edgeLabel;html=1;align=center;verticalAlign=middle;resizable=0;points=[];" vertex="1" connectable="0" parent="idPZOw37KrWaq4Scq1qP-209">
          <mxGeometry x="0.5087" y="-5" relative="1" as="geometry">
            <mxPoint x="1" as="offset" />
          </mxGeometry>
        </mxCell>
        <mxCell id="idPZOw37KrWaq4Scq1qP-174" value="" style="rhombus;whiteSpace=wrap;html=1;" vertex="1" parent="1">
          <mxGeometry x="-510" y="270" width="80" height="80" as="geometry" />
        </mxCell>
        <mxCell id="idPZOw37KrWaq4Scq1qP-197" style="edgeStyle=orthogonalEdgeStyle;rounded=0;orthogonalLoop=1;jettySize=auto;html=1;exitX=1;exitY=0.5;exitDx=0;exitDy=0;entryX=0;entryY=0.5;entryDx=0;entryDy=0;" edge="1" parent="1" source="idPZOw37KrWaq4Scq1qP-175" target="idPZOw37KrWaq4Scq1qP-58">
          <mxGeometry relative="1" as="geometry" />
        </mxCell>
        <mxCell id="idPZOw37KrWaq4Scq1qP-198" value="&lt;font style=&quot;font-size: 22px;&quot;&gt;1&lt;/font&gt;" style="edgeLabel;html=1;align=center;verticalAlign=middle;resizable=0;points=[];" vertex="1" connectable="0" parent="idPZOw37KrWaq4Scq1qP-197">
          <mxGeometry x="0.0393" y="-3" relative="1" as="geometry">
            <mxPoint as="offset" />
          </mxGeometry>
        </mxCell>
        <mxCell id="idPZOw37KrWaq4Scq1qP-175" value="" style="rhombus;whiteSpace=wrap;html=1;" vertex="1" parent="1">
          <mxGeometry x="-100" y="110" width="80" height="80" as="geometry" />
        </mxCell>
        <mxCell id="idPZOw37KrWaq4Scq1qP-199" style="edgeStyle=orthogonalEdgeStyle;rounded=0;orthogonalLoop=1;jettySize=auto;html=1;exitX=1;exitY=0.5;exitDx=0;exitDy=0;entryX=0;entryY=0.5;entryDx=0;entryDy=0;" edge="1" parent="1" source="idPZOw37KrWaq4Scq1qP-176" target="idPZOw37KrWaq4Scq1qP-45">
          <mxGeometry relative="1" as="geometry" />
        </mxCell>
        <mxCell id="idPZOw37KrWaq4Scq1qP-200" value="1" style="edgeLabel;html=1;align=center;verticalAlign=middle;resizable=0;points=[];fontSize=22;" vertex="1" connectable="0" parent="idPZOw37KrWaq4Scq1qP-199">
          <mxGeometry x="-0.0148" y="-3" relative="1" as="geometry">
            <mxPoint as="offset" />
          </mxGeometry>
        </mxCell>
        <mxCell id="idPZOw37KrWaq4Scq1qP-176" value="" style="rhombus;whiteSpace=wrap;html=1;" vertex="1" parent="1">
          <mxGeometry x="-80" y="435" width="80" height="80" as="geometry" />
        </mxCell>
        <mxCell id="idPZOw37KrWaq4Scq1qP-195" value="date" style="shape=partialRectangle;html=1;whiteSpace=wrap;connectable=0;strokeColor=inherit;overflow=hidden;fillColor=none;top=0;left=0;bottom=0;right=0;pointerEvents=1;fontSize=16;" vertex="1" parent="1">
          <mxGeometry x="-390" y="150" width="60" height="35" as="geometry">
            <mxRectangle width="60" height="35" as="alternateBounds" />
          </mxGeometry>
        </mxCell>
        <mxCell id="idPZOw37KrWaq4Scq1qP-196" style="edgeStyle=orthogonalEdgeStyle;rounded=0;orthogonalLoop=1;jettySize=auto;html=1;exitX=1;exitY=0.5;exitDx=0;exitDy=0;entryX=0;entryY=0.5;entryDx=0;entryDy=0;" edge="1" parent="1" source="idPZOw37KrWaq4Scq1qP-140" target="idPZOw37KrWaq4Scq1qP-175">
          <mxGeometry relative="1" as="geometry" />
        </mxCell>
        <mxCell id="idPZOw37KrWaq4Scq1qP-205" style="edgeStyle=orthogonalEdgeStyle;rounded=0;orthogonalLoop=1;jettySize=auto;html=1;entryX=0;entryY=0.5;entryDx=0;entryDy=0;" edge="1" parent="1" target="idPZOw37KrWaq4Scq1qP-176">
          <mxGeometry relative="1" as="geometry">
            <mxPoint x="-190" y="560" as="sourcePoint" />
          </mxGeometry>
        </mxCell>
        <mxCell id="idPZOw37KrWaq4Scq1qP-211" style="edgeStyle=orthogonalEdgeStyle;rounded=0;orthogonalLoop=1;jettySize=auto;html=1;entryX=0.987;entryY=0.111;entryDx=0;entryDy=0;entryPerimeter=0;" edge="1" parent="1" source="idPZOw37KrWaq4Scq1qP-174" target="idPZOw37KrWaq4Scq1qP-160">
          <mxGeometry relative="1" as="geometry" />
        </mxCell>
      </root>
    </mxGraphModel>
  </diagram>
</mxfile>
